Complete name                            : Batman - The Dark Knight Returns - Part 1 (HD 720p).m4v
Format                                   : MPEG-4
Format profile                           : Base Media / Version 2
Codec ID                                 : mp42
File size                                : 1.10 GiB
Duration                                 : 1h 16mn
Overall bit rate mode                    : Variable
Overall bit rate                         : 2 061 Kbps
Movie name                               : Batman: The Dark Knight Returns, Part 1
Performer                                : Peter Weller, Ariel Winter, Wade Williams, Michael McKean, Rob Paulsen, Maurice LaMarche, Gary Anthony Williams, David Selby, Gary Anthony Sturgis, Paget Brewster
Recorded date                            : 2012-09-25
Encoded date                             : UTC 2012-10-07 07:05:47
Tagged date                              : UTC 2012-10-07 23:21:14
Writing application                      : HandBrake 5001svn 2012100601
Cover                                    : Yes
desc                                     : Batman has not been seen for ten years. A new breed of criminal ravages Gotham City, forcing 55-year-old Bruce Wayne back into the cape and cowl. But, does he still have what it takes to fight crime in a new era?

Video #1
ID                                       : 1
Format                                   : AVC
Format/Info                              : Advanced Video Codec
Format profile                           : High@L3.1
Format settings, CABAC                   : Yes
Format settings, ReFrames                : 4 frames
Codec ID                                 : avc1
Codec ID/Info                            : Advanced Video Coding
Duration                                 : 1h 16mn
Bit rate mode                            : Variable
Bit rate                                 : 1 214 Kbps
Width                                    : 1 280 pixels
Height                                   : 720 pixels
Display aspect ratio                     : 16:9
Frame rate mode                          : Variable
Frame rate                               : 23.976 fps
Minimum frame rate                       : 23.810 fps
Maximum frame rate                       : 24.390 fps
Color space                              : YUV
Chroma subsampling                       : 4:2:0
Bit depth                                : 8 bits
Scan type                                : Progressive
Bits/(Pixel*Frame)                       : 0.055
Stream size                              : 663 MiB (59%)
Writing library                          : x264 core 125
Encoded date                             : UTC 2012-10-07 07:05:47
Tagged date                              : UTC 2012-10-07 08:11:33
Color primaries                          : BT.709
Transfer characteristics                 : BT.709
Matrix coefficients                      : BT.709

Audio #1
ID                                       : 2
Format                                   : AAC
Format/Info                              : Advanced Audio Codec
Format profile                           : LC
Codec ID                                 : 40
Duration                                 : 1h 16mn
Bit rate mode                            : Variable
Bit rate                                 : 197 Kbps
Maximum bit rate                         : 323 Kbps
Channel(s)                               : 2 channels
Channel positions                        : Front: L R
Sampling rate                            : 48.0 KHz
Compression mode                         : Lossy
Delay relative to video                  : 83ms
Stream size                              : 107 MiB (10%)
Language                                 : English
Encoded date                             : UTC 2012-10-07 07:05:47
Tagged date                              : UTC 2012-10-07 08:11:32

Audio #2
ID                                       : 3
Format                                   : AC-3
Format/Info                              : Audio Coding 3
Mode extension                           : CM (complete main)
Format settings, Endianness              : Big
Codec ID                                 : ac-3
Duration                                 : 1h 16mn
Bit rate mode                            : Constant
Bit rate                                 : 640 Kbps
Channel(s)                               : 6 channels
Channel positions                        : Front: L C R, Side: L R, LFE
Sampling rate                            : 48.0 KHz
Bit depth                                : 16 bits
Compression mode                         : Lossy
Delay relative to video                  : 83ms
Stream size                              : 350 MiB (31%)
Language                                 : English
Encoded date                             : UTC 2012-10-07 07:05:47
Tagged date                              : UTC 2012-10-07 08:11:32